<?xml version="1.0" encoding="UTF-8"?>
<svg width="20px" height="20px" viewBox="0 0 20 20" version="1.1" xmlns="http://www.w3.org/2000/svg" xmlns:xlink="http://www.w3.org/1999/xlink">
    <!-- Generator: Sketch 41.1 (35376) - http://www.bohemiancoding.com/sketch -->
    <title>Fill 19</title>
    <desc>Created with Sketch.</desc>
    <defs></defs>
    <g id="about" stroke="none" stroke-width="1" fill="none" fill-rule="evenodd">
        <g id="Large-Devices-(-≥-1200px-)-Copy" transform="translate(-150.000000, -5270.000000)" fill="#FFFFFF">
            <g id="footer" transform="translate(0.000000, 4565.000000)">
                <g id="Group-18" transform="translate(150.000000, 705.000000)">
                    <path d="M8.52141294,3.86129335 C7.6086277,3.86129335 6.72397624,4.00499844 6.12691466,4.29553265 C5.52985308,4.58919088 5.09846827,5.1046548 4.87652391,5.56701031 C4.65457956,6.02936582 4.54517037,6.59481412 4.54517037,7.53514527 L4.54517037,8.42861606 L3.04782745,8.42861606 L3.04782745,10.7685098 L4.54517037,10.7685098 L4.54517037,18.547329 L7.7430447,18.547329 L7.7430447,10.7685098 L9.73741794,10.7685098 L10.2907158,8.42861606 L7.7430447,8.42861606 L7.7430447,7.58825367 C7.7430447,7.01968135 7.84620194,6.63542643 8.05251641,6.43548891 C8.25883088,6.23555139 8.66833385,6.11371446 9.14660832,6.11371446 C9.62800875,6.11371446 10.0156299,6.3417682 10.5064083,6.62605436 L11.0878399,4.42361762 C10.1906846,4.1705717 9.459206,3.86129335 8.52141294,3.86129335 L8.52141294,3.86129335 Z M18.4588934,20 L1.5411066,20 C0.690840888,20 0,19.3720712 0,18.5223368 L0,1.54326773 C0,0.690409247 0.690840888,0 1.5411066,0 L18.4588934,0 C19.3091591,0 20,0.690409247 20,1.54326773 L20,18.5223368 C20,19.3720712 19.3091591,20 18.4588934,20 L18.4588934,20 Z" id="Fill-19"></path>
                </g>
            </g>
        </g>
    </g>
</svg>