<svg xmlns:rdf="http://www.w3.org/1999/02/22-rdf-syntax-ns#" xmlns="http://www.w3.org/2000/svg" height="169.33mm" width="751.93mm" version="1.1" xmlns:cc="http://creativecommons.org/ns#" xmlns:xlink="http://www.w3.org/1999/xlink" viewBox="0 0 2664.3054 599.99998" xmlns:dc="http://purl.org/dc/elements/1.1/">
 <defs>
  <linearGradient id="a">
   <stop stop-color="#eee" offset="0"/>
   <stop stop-color="#fff" offset="1"/>
  </linearGradient>
  <linearGradient id="e" y2="-6.2092" xlink:href="#a" gradientUnits="userSpaceOnUse" x2="-565.71" gradientTransform="matrix(3.4283 0 0 1.5789 3256.1 231.86)" y1="370.93" x1="-565.71"/>
  <linearGradient id="d" y2="1593.4" gradientUnits="userSpaceOnUse" x2="1819.1" y1="1896.3" x1="1819.1">
   <stop stop-color="#89c13d" offset="0"/>
   <stop stop-color="#98d444" offset="1"/>
  </linearGradient>
  <linearGradient id="c" y2="958.43" xlink:href="#a" gradientUnits="userSpaceOnUse" x2="906.67" y1="958.43" x1="-472.41"/>
  <linearGradient id="b" y2="132.97" xlink:href="#a" gradientUnits="userSpaceOnUse" x2="234.79" y1="1774.3" x1="234.79"/>
 </defs>
 <g transform="translate(5.7143 -224.31)">
  <g>
   <rect height="600" width="2664.3" y="224.31" x="-5.7143" fill="url(#e)"/>
   <rect height="515.82" width="505.75" y="266.4" x="35.561" fill="#89c13d"/>
   <g transform="matrix(.26612 0 0 .24456 230.66 289.92)">
    <title fill="url(#c)">Layer 1</title>
    <path d="m217.59 140.61h6.0195l25.93 13.038q25.93 13.038 34.265 17.084 8.3346 4.0462 56.722 26.301 48.387 22.254 50.008 22.479 1.6207 0.22479 25.698 10.565 24.078 10.34 37.042 15.286 12.965 4.9454 37.506 13.488 24.541 8.5422 31.024 10.79 6.4826 2.248 16.207 5.3951 9.7238 3.1471 25.004 7.643 15.28 4.496 38.895 10.79 23.615 6.2942 45.841 11.24 22.226 4.9454 28.708 6.2942 6.4825 1.3488 41.21 7.643t43.526 7.643q8.7976 1.3488 43.062 6.7438 34.265 5.395 34.728 5.395t33.339 6.2942 33.107 6.519l0.2315 0.2248-1.3892 66.988q-1.3891 66.988-6.9455 173.09t-8.7977 148.36q-3.2413 42.261-7.4085 72.383-4.1675 30.122-9.7239 57.096-5.5564 26.975-12.039 54.4t-11.576 48.106q-5.0935 20.681-12.039 44.509-6.9456 23.828-8.3347 28.773-1.3892 4.9455-4.1673 12.588-2.7783 7.643-6.4826 18.883-3.7042 11.24-11.576 32.37-7.8717 21.131-12.965 33.719-5.0934 12.588-12.502 30.122t-18.985 42.261-13.891 28.773q-2.3153 4.0463-16.901 29.448t-17.595 30.122q-3.0099 4.7207-14.354 23.828t-14.817 24.278q-3.4729 5.1702-10.65 16.185-7.1772 11.015-11.576 17.084-4.3989 6.0694-10.187 14.387-5.788 8.3173-11.113 15.286-5.3249 6.9687-8.3347 11.689-3.0096 4.7207-8.7976 12.139-5.7881 7.4181-11.113 14.836-5.3247 7.4182-11.576 15.286-6.2511 7.8678-10.65 13.488-4.3988 5.6199-18.753 21.355-14.354 15.736-33.802 35.967t-34.265 34.618q-14.818 14.387-19.679 18.208-4.8621 3.8217-22.689 19.332-17.827 15.511-21.762 18.882-3.9359 3.372-19.447 16.635-15.512 13.263-20.374 17.084-4.8619 3.8217-11.113 8.9919-6.251 5.1704-17.364 14.162-11.113 8.9917-16.901 13.263-5.788 4.2712-11.113 7.643-5.325 3.3721-19.448 11.689-14.123 8.3174-18.522 11.24-4.3989 2.9224-9.9553 6.0694-5.5564 3.1472-11.576 7.1935-6.0195 4.0462-8.7977 5.8446-2.7782 1.7983-12.039 6.2943-9.2608 4.4957-22.226 10.34-12.965 5.8445-18.058 7.643l-5.0934 1.7983-5.5565-1.3488q-5.5564-1.3487-12.039-4.4957-6.4825-3.1472-21.763-10.79-15.28-7.6429-17.595-9.4412-2.3152-1.7984-11.808-7.8677-9.4922-6.0695-14.354-8.9918-4.8619-2.9223-18.985-11.24-14.123-8.3175-19.448-11.689-5.325-3.3718-11.113-7.6429-5.7879-4.271-13.197-10.116-7.4086-5.8447-19.679-15.96-12.27-10.116-21.3-17.534-9.0292-7.4181-26.393-22.479t-22.226-18.883q-4.8619-3.8215-21.3-17.984t-18.29-15.96q-1.8522-1.7984-16.438-15.96t-20.374-20.231q-5.788-6.0694-25.467-26.975t-23.615-25.626q-3.9358-4.7207-11.576-13.937-7.6401-9.2165-12.039-14.836-4.3988-5.6197-8.7977-11.689-4.3988-6.0693-9.2607-12.588-4.8619-6.5189-8.7977-11.689-3.9358-5.1704-6.7141-9.2165-2.7782-4.0463-7.6401-10.565-4.8619-6.519-8.3346-11.689-3.4728-5.1702-9.2608-13.488-5.788-8.3174-8.7977-13.038-3.0097-4.7208-9.7238-14.836-6.714-10.116-8.7977-13.937-2.0836-3.8214-11.576-19.332-9.4923-15.511-12.502-20.231-3.0097-4.7207-15.049-25.851-12.039-21.131-18.058-31.921-6.0195-10.79-10.65-20.232-4.6304-9.4412-12.965-28.324-8.3347-18.882-8.3347-19.332t-8.3347-20.681-12.965-31.921q-4.6304-11.69-12.965-35.518-8.3347-23.828-16.669-50.803-8.3347-26.975-18.522-65.64-10.187-38.664-14.354-57.547-4.1673-18.882-11.576-54.849-7.4086-35.966-8.7977-47.206t-6.0195-68.787-6.0195-86.77-3.2413-62.042q-1.8521-32.82-5.0934-107.45-3.2412-74.631-3.2412-105.65v-31.021l3.0098-1.5735q3.0097-1.5736 16.438-3.8215t37.043-5.8445q23.615-3.5967 71.771-11.689 48.156-8.0925 68.993-11.689 20.837-3.5968 55.102-11.24 34.265-7.643 59.269-14.387 25.004-6.7439 43.063-12.589 18.059-5.8447 28.245-8.9918 10.187-3.1471 19.448-6.2942 9.2608-3.1472 37.043-13.488 27.782-10.34 52.091-20.906 24.309-10.565 25.93-10.79 1.6207-0.2248 23.383-10.116 21.763-9.8909 39.358-17.983 17.595-8.0926 34.728-16.185 17.132-8.0925 42.599-21.13l25.467-13.038h6.0195v0.00001z" fill-rule="evenodd" fill="url(#b)"/>
   </g>
  </g>
  <g transform="matrix(.88901 0 0 .75865 -120.37 213.03)">
   <g transform="translate(-1348 -1331.7)">
    <path opacity="0.98" d="m1805.7 1593c-44.13 1.1108-79.312 37.031-79.312 81.438v34.625h-21.344v117.75h0.031c-0.031 0.8505-0.031 1.7033-0.031 2.5625 0 34.197 25.051 61.719 56.187 61.719h93.094c31.136 0 56.219-27.522 56.219-61.719 0-0.859-0.032-1.7123-0.063-2.5625h0.063v-117.75h-21.313v-34.625c0-45.111-36.295-81.438-81.406-81.438-0.7049 0-1.4245-0.018-2.125 0zm-0.375 23.75c0.5355-0.013 1.0865 0 1.625 0 25.79-0.6025 51.139 18.477 56.406 43.812 0.8967 16.166 1.4017 32.319 1.6876 48.5h-114.31c-0.027-7.7372-0.063-15.456-0.2187-23.188-6.5279-33.085 21.075-68.332 54.812-69.125zm2.375 135.38c1.2168 0 2.4472 0.095 3.6875 0.2812 13.23 1.9847 22.36 14.301 20.375 27.531-0.9138 6.092-4.0565 11.334-8.4375 15l8.4688 53.094h-23.844-0.3438-23.812l8.4374-53.094c-6.2414-5.2417-9.7038-13.536-8.4062-22.188 1.7986-11.99 12.112-20.593 23.875-20.625z" stroke-width="0" fill="url(#d)"/>
   </g>
  </g>
  <g>
   <g fill="#89c13d" transform="matrix(.64986 0 0 .58705 403.98 175.68)">
    <path d="m1401.3 298.86q-3.0762-13.271-15.029-18.545-6.6797-2.9004-14.854-2.9004-15.645 0-25.752 11.865-10.02 11.777-10.02 35.508 0 23.906 10.898 33.838 10.898 9.9316 24.785 9.9316 13.623 0 22.324-7.8223 8.7012-7.9102 10.723-20.654h-29.971v-21.621h53.965v69.521h-17.93l-2.7246-16.172q-7.8223 9.2285-14.062 13.008-10.723 6.5918-26.367 6.5918-25.752 0-42.188-17.842-17.139-17.93-17.139-49.043 0-31.465 17.314-50.449t45.791-18.984q24.697 0 39.639 12.568 15.029 12.48 17.227 31.201h-26.631zm-30.322-43.77z"/>
    <path d="m1511.8 368.64q16.084 0 25.488-11.865 9.4922-11.865 9.4922-33.75 0-21.797-9.4922-33.662-9.4043-11.953-25.488-11.953t-25.664 11.865-9.58 33.75 9.58 33.75q9.5801 11.865 25.664 11.865zm62.051-45.615q0 34.893-19.6 53.438-14.678 15.117-42.451 15.117t-42.451-15.117q-19.688-18.545-19.688-53.438 0-35.596 19.688-53.438 14.678-15.117 42.451-15.117t42.451 15.117q19.6 17.842 19.6 53.438zm-62.051-68.555z"/>
    <path d="m1620.7 280.93v84.551h24.961q19.16 0 26.719-18.896 4.1308-10.371 4.1308-24.697 0-19.775-6.2402-30.322-6.1523-10.635-24.609-10.635h-24.961zm29.531-22.5q12.041 0.17578 20.039 2.8125 13.623 4.4824 22.061 16.436 6.7675 9.668 9.2285 20.918 2.4609 11.25 2.4609 21.445 0 25.84-10.371 43.77-14.062 24.17-43.418 24.17h-55.81v-129.55h55.81z"/>
    <path d="m1759.9 339.03h32.871l-16.172-50.977-16.699 50.977zm1.67-80.596h30.586l45.879 129.55h-29.356l-8.3496-26.631h-47.725l-8.9648 26.631h-28.301l46.23-129.55zm15.117 0z"/>
    <path d="m1880.9 280.93v84.551h24.961q19.16 0 26.719-18.896 4.1309-10.371 4.1309-24.697 0-19.775-6.2402-30.322-6.1524-10.635-24.609-10.635h-24.961zm29.531-22.5q12.041 0.17578 20.039 2.8125 13.623 4.4824 22.06 16.436 6.7676 9.668 9.2285 20.918 2.461 11.25 2.461 21.445 0 25.84-10.371 43.77-14.062 24.17-43.418 24.17h-55.811v-129.55h55.811z"/>
    <path d="m2011 280.93v84.551h24.961q19.16 0 26.719-18.896 4.1308-10.371 4.1308-24.697 0-19.775-6.2402-30.322-6.1524-10.635-24.609-10.635h-24.961zm29.531-22.5q12.041 0.17578 20.039 2.8125 13.623 4.4824 22.06 16.436 6.7676 9.668 9.2285 20.918 2.461 11.25 2.461 21.445 0 25.84-10.371 43.77-14.062 24.17-43.418 24.17h-55.81v-129.55h55.81z"/>
    <path d="m2188.7 258.43h30.674l-43.33 80.859v48.691h-27.07v-48.691l-44.824-80.859h31.904l26.895 56.426 25.752-56.426zm-26.894 0z"/>
    <path d="m2288 269.5q-22.324 0-38.057 16.172-15.469 15.82-15.469 37.529 0 22.5 15.732 38.232 15.645 15.732 37.793 15.732 22.061 0 37.705-15.82 15.644-15.908 15.644-38.145 0-21.621-15.557-37.529-15.732-16.172-37.793-16.172zm64.775 53.701q0 27.598-19.424 46.494-18.896 18.281-45.352 18.281-27.334 0-46.055-18.721t-18.721-46.055q0-28.389 20.215-47.197 18.984-17.578 44.56-17.578 26.807 0 45.791 18.984t18.984 45.791zm-53.086-13.447q0-5.8887-5.8008-8.1738-3.8672-1.4941-10.898-1.4941h-4.5704v20.83h7.295q6.5918 0 10.283-2.6367 3.6914-2.6367 3.6914-8.5254zm-40.078 49.482v-71.807q6.6797 0 19.951 0.0879 13.359 0 14.854 0.0879 8.5254 0.61523 14.15 3.6914 9.5801 5.2734 9.5801 17.139 0 9.0527-5.0977 13.096-5.0097 4.043-12.392 4.834 6.7675 1.4062 10.195 4.1309 6.3281 5.0977 6.3281 16.084v6.416q0 1.0547 0.088 2.1094 0.1758 1.0547 0.5273 2.1094l0.6153 2.0215h-17.93q-0.8789-3.4277-1.1426-9.9316t-1.1426-8.7891q-1.4062-3.7793-5.2734-5.2734-2.1094-0.87891-6.416-1.1426l-4.1309-0.26367h-3.9551v25.4h-18.809z"/>
   </g>
   <g fill="#333" transform="matrix(1.0957 0 0 .78299 -412.14 148.26)">
    <path d="m1335.6 687.21h14.062l-22.104 64.775h-12.788l-21.885-64.775h14.458l14.062 49.175 14.194-49.175z"/>
    <path d="m1405.7 698.67h-34.277v13.755h31.465v11.25h-31.465v16.655h35.859v11.646h-49.087v-64.775h47.505v11.47z"/>
    <path d="m1431.4 698.46v17.402h15.337q4.5703 0 6.8554-1.0547 4.043-1.8457 4.043-7.2949 0-5.8887-3.9111-7.9102-2.1973-1.1426-6.5918-1.1426h-15.732zm18.545-11.25q6.8115 0.13184 10.459 1.6699 3.6914 1.5381 6.2402 4.5264 2.1094 2.4609 3.3398 5.4492 1.2305 2.9883 1.2305 6.8115 0 4.6143-2.3291 9.0967-2.3291 4.4385-7.6904 6.2842 4.4824 1.8018 6.3281 5.1416 1.8897 3.2959 1.8897 10.107v4.3506q0 4.4385 0.3515 6.0205 0.5274 2.5049 2.461 3.6914v1.626h-14.898q-0.6152-2.1533-0.8789-3.4717-0.5274-2.7246-0.5713-5.581l-0.088-6.0205q-0.088-6.1963-2.2851-8.2617-2.1534-2.0654-8.1299-2.0654h-13.975v25.4h-13.228v-64.775h31.772z"/>
    <path d="m1495.3 751.98h-13.447v-64.775h13.447v64.775zm-6.7236-66.05z"/>
    <path d="m1508.1 687.29h45.923v11.382h-32.476v14.897h28.433v11.25h-28.433v27.158h-13.447v-64.688z"/>
    <path d="m1600 687.21h15.337l-21.665 40.43v24.346h-13.535v-24.346l-22.412-40.43h15.952l13.447 28.213 12.876-28.213zm-13.447 0z"/>
    <path d="m1657.8 731.99q0.6152 4.4385 2.417 6.6358 3.2959 3.999 11.294 3.999 4.79 0 7.7783-1.0547 5.669-2.0215 5.669-7.5146 0-3.208-2.8125-4.9658-2.8125-1.7139-8.833-3.0322l-6.8555-1.5381q-10.107-2.2852-13.975-4.9658-6.5479-4.4824-6.5479-14.019 0-8.7012 6.3282-14.458 6.3281-5.7568 18.589-5.7568 10.239 0 17.446 5.4492 7.251 5.4053 7.6025 15.732h-13.008q-0.3515-5.8447-5.0976-8.3057-3.1641-1.626-7.8662-1.626-5.2295 0-8.3496 2.1094-3.1202 2.1094-3.1202 5.8887 0 3.4717 3.0762 5.1856 1.9776 1.1426 8.4375 2.6807l11.162 2.6807q7.3389 1.7578 11.074 4.7022 5.8008 4.5703 5.8008 13.228 0 8.877-6.8115 14.766-6.7676 5.8447-19.16 5.8447-12.656 0-19.907-5.7568-7.251-5.8008-7.251-15.908h12.92zm13.14-46.758z"/>
    <path d="m1755.8 698.67h-34.277v13.755h31.465v11.25h-31.465v16.655h35.859v11.646h-49.087v-64.775h47.505v11.47z"/>
    <path d="m1765.2 720.12q0-16.963 9.0966-26.147 7.9102-7.998 20.127-7.998 16.348 0 23.906 10.723 4.1748 6.0205 4.4825 12.085h-13.535q-1.3184-4.6582-3.3838-7.0312-3.6914-4.2188-10.942-4.2188-7.3828 0-11.646 5.9766-4.2627 5.9326-4.2627 16.831t4.4824 16.348q4.5264 5.4053 11.47 5.4053 7.1191 0 10.854-4.6582 2.0654-2.5049 3.4277-7.5146h13.403q-1.7578 10.591-9.0088 17.227-7.207 6.6357-18.501 6.6357-13.975 0-21.973-8.9648-7.998-9.0088-7.998-24.697zm28.828-34.893z"/>
    <path d="m1833.1 687.21h13.755v39.814q0 6.6797 1.582 9.7559 2.461 5.4492 10.723 5.4492 8.2178 0 10.679-5.4492 1.582-3.0762 1.582-9.7559v-39.814h13.755v39.814q0 10.327-3.208 16.084-5.9766 10.547-22.808 10.547t-22.852-10.547q-3.208-5.7568-3.208-16.084v-39.814zm26.06 0z"/>
    <path d="m1911.7 698.46v17.402h15.337q4.5704 0 6.8555-1.0547 4.043-1.8457 4.043-7.2949 0-5.8887-3.9111-7.9102-2.1973-1.1426-6.5918-1.1426h-15.732zm18.545-11.25q6.8115 0.13184 10.459 1.6699 3.6914 1.5381 6.2403 4.5264 2.1093 2.4609 3.3398 5.4492t1.2305 6.8115q0 4.6143-2.3291 9.0967-2.3291 4.4385-7.6904 6.2842 4.4824 1.8018 6.3281 5.1416 1.8896 3.2959 1.8896 10.107v4.3506q0 4.4385 0.3516 6.0205 0.5273 2.5049 2.4609 3.6914v1.626h-14.897q-0.6153-2.1533-0.8789-3.4717-0.5274-2.7246-0.5713-5.581l-0.088-6.0205q-0.088-6.1963-2.2852-8.2617-2.1533-2.0654-8.1299-2.0654h-13.975v25.4h-13.228v-64.775h31.772z"/>
    <path d="m1975.6 751.98h-13.447v-64.775h13.447v64.775zm-6.7236-66.05z"/>
    <path d="m2035.4 687.21v11.47h-19.38v53.306h-13.623v-53.306h-19.468v-11.47h52.471z"/>
    <path d="m2080.3 687.21h15.337l-21.665 40.43v24.346h-13.535v-24.346l-22.412-40.43h15.952l13.447 28.213 12.876-28.213zm-13.447 0z"/>
    <path d="m2128.1 751.98v-64.775h13.403v24.697h25.312v-24.697h13.447v64.775h-13.447v-28.916h-25.312v28.916h-13.403z"/>
    <path d="m2241.2 698.67h-34.277v13.755h31.465v11.25h-31.465v16.655h35.859v11.646h-49.087v-64.775h47.505v11.47z"/>
    <path d="m2266.9 698.46v17.402h15.337q4.5703 0 6.8554-1.0547 4.043-1.8457 4.043-7.2949 0-5.8887-3.9111-7.9102-2.1973-1.1426-6.5918-1.1426h-15.732zm18.545-11.25q6.8115 0.13184 10.459 1.6699 3.6915 1.5381 6.2403 4.5264 2.1094 2.4609 3.3398 5.4492 1.2305 2.9883 1.2305 6.8115 0 4.6143-2.3291 9.0967-2.3291 4.4385-7.6904 6.2842 4.4824 1.8018 6.3281 5.1416 1.8896 3.2959 1.8896 10.107v4.3506q0 4.4385 0.3516 6.0205 0.5273 2.5049 2.4609 3.6914v1.626h-14.897q-0.6153-2.1533-0.8789-3.4717-0.5274-2.7246-0.5713-5.581l-0.088-6.0205q-0.088-6.1963-2.2852-8.2617-2.1533-2.0654-8.1299-2.0654h-13.975v25.4h-13.228v-64.775h31.772z"/>
    <path d="m2366.3 698.67h-34.277v13.755h31.465v11.25h-31.465v16.655h35.859v11.646h-49.087v-64.775h47.505v11.47z"/>
   </g>
   <g fill="#60737d">
    <path d="m672.53 601.47-50.446-132.13h18.674l41.861 111.25 41.949-111.25h18.585l-50.357 132.13h-20.267z"/>
    <path d="m762.36 469.34h83.545v15.045h-65.668v39.117h62.924v15.045h-62.924v47.879h67.261v15.045h-85.138v-132.13z"/>
    <path d="m939.36 539.52q5.7526 1.947 11.151 8.3191 5.4871 6.3721 10.974 17.523l18.143 36.108h-19.205l-16.904-33.896q-6.5491-13.275-12.744-17.612-6.1066-4.3366-16.727-4.3366h-19.47v55.844h-17.877v-132.13h40.356q22.656 0 33.807 9.4696t11.151 28.586q0 12.479-5.8411 20.709-5.7526 8.2306-16.815 11.417zm-44.782-55.49v46.906h22.479q12.921 0 19.47-5.9296 6.6376-6.0181 6.6376-17.612t-6.6376-17.435q-6.5491-5.9296-19.47-5.9296h-22.479z"/>
    <path d="m1002.7 469.34h17.877v132.13h-17.877v-132.13z"/>
    <path d="m1056.2 469.34h75.934v15.045h-58.057v38.94h52.393v15.045h-52.393v63.101h-17.877v-132.13z"/>
    <path d="m1160.3 469.34h17.877v132.13h-17.877v-132.13z"/>
    <path d="m1213.7 469.34h83.545v15.045h-65.668v39.117h62.924v15.045h-62.924v47.879h67.261v15.045h-85.138v-132.13z"/>
    <path d="m1345.9 484.03v102.75h21.594q27.347 0 40.002-12.39 12.744-12.39 12.744-39.117 0-26.55-12.744-38.852-12.656-12.39-40.002-12.39h-21.594zm-17.877-14.691h36.728q38.409 0 56.375 16.019 17.966 15.93 17.966 49.915 0 34.161-18.054 50.18t-56.287 16.019h-36.728v-132.13z"/>
    <path d="m1551.5 530.4q-8.0536 7.1686-11.859 14.337-3.717 7.0801-3.717 14.868 0 12.921 9.3811 21.506 9.3811 8.5846 23.541 8.5846 8.4075 0 15.753-2.7435 7.3456-2.832 13.806-8.4961l-46.906-48.056zm12.479-9.9121 44.958 46.02q5.2216-7.8766 8.1421-16.815 2.9205-9.0271 3.4515-19.116h16.461q-1.062 11.682-5.6641 23.099-4.602 11.417-12.833 22.568l24.692 25.223h-22.302l-12.656-13.01q-9.2041 7.8766-19.293 11.771-10.089 3.8055-21.683 3.8055-21.329 0-34.869-12.125-13.541-12.213-13.541-31.241 0-11.328 5.9296-21.24 5.9295-10.001 17.789-18.762-4.2481-5.5756-6.4606-11.063-2.2125-5.5756-2.2125-10.886 0-14.337 9.8236-23.01 9.8236-8.7616 26.108-8.7616 7.3455 0 14.603 1.593 7.3456 1.593 14.868 4.7791v16.107q-7.6996-4.1595-14.691-6.2836-6.9915-2.2125-13.01-2.2125-9.2926 0-15.134 4.956-5.7525 4.8676-5.7525 12.656 0 4.5136 2.5665 9.1156 2.655 4.5136 10.709 12.833z"/>
    <path d="m1803.4 473.67v17.435q-10.178-4.8676-19.205-7.2571-9.0271-2.3895-17.435-2.3895-14.603 0-22.568 5.6641-7.8766 5.6641-7.8766 16.107 0 8.7616 5.2216 13.275 5.31 4.425 20.001 7.1686l10.797 2.2125q20.001 3.8055 29.471 13.452 9.5581 9.5581 9.5581 25.665 0 19.205-12.921 29.117-12.833 9.9121-37.701 9.9121-9.3811 0-20.001-2.124-10.532-2.124-21.86-6.2836v-18.408q10.886 6.1066 21.329 9.2041t20.532 3.0975q15.311 0 23.63-6.0181 8.3191-6.0181 8.3191-17.169 0-9.7351-6.018-15.222-5.9296-5.4871-19.559-8.2306l-10.886-2.124q-20.001-3.9825-28.94-12.479-8.9386-8.4961-8.9386-23.63 0-17.523 12.302-27.612 12.39-10.089 34.073-10.089 9.2926 0 18.939 1.6815 9.6466 1.6815 19.736 5.0446z"/>
    <path d="m1839.6 469.34h83.545v15.045h-65.668v39.117h62.924v15.045h-62.924v47.879h67.261v15.045h-85.138v-132.13z"/>
    <path d="m2052.9 479.51v18.851q-9.0271-8.4076-19.293-12.567-10.178-4.1595-21.683-4.1595-22.656 0-34.692 13.895-12.036 13.806-12.036 40.002 0 26.108 12.036 40.002 12.036 13.806 34.692 13.806 11.505 0 21.683-4.1596 10.266-4.1596 19.293-12.567v18.674q-9.3811 6.3721-19.913 9.5581-10.443 3.186-22.125 3.186-30.002 0-47.26-18.32-17.258-18.408-17.258-50.18 0-31.86 17.258-50.18 17.258-18.408 47.26-18.408 11.859 0 22.302 3.186 10.532 3.0975 19.736 9.3811z"/>
    <path d="m2078.6 469.34h17.966v80.27q0 21.24 7.6996 30.621 7.6995 9.2926 24.957 9.2926 17.169 0 24.869-9.2926 7.6996-9.3811 7.6996-30.621v-80.27h17.966v82.483q0 25.842-12.833 39.029-12.744 13.187-37.702 13.187-25.046 0-37.878-13.187-12.744-13.187-12.744-39.029v-82.483z"/>
    <path d="m2276.1 539.52q5.7525 1.947 11.151 8.3191 5.487 6.3721 10.974 17.523l18.143 36.108h-19.205l-16.904-33.896q-6.5491-13.275-12.744-17.612-6.1066-4.3366-16.727-4.3366h-19.47v55.844h-17.877v-132.13h40.356q22.656 0 33.807 9.4696t11.151 28.586q0 12.479-5.8411 20.709-5.7525 8.2306-16.815 11.417zm-44.782-55.49v46.906h22.479q12.921 0 19.47-5.9296 6.6376-6.0181 6.6376-17.612t-6.6376-17.435q-6.549-5.9296-19.47-5.9296h-22.479z"/>
    <path d="m2339.5 469.34h83.545v15.045h-65.668v39.117h62.924v15.045h-62.924v47.879h67.261v15.045h-85.138v-132.13z"/>
    <path d="m2471.7 484.03v102.75h21.594q27.347 0 40.002-12.39 12.744-12.39 12.744-39.117 0-26.55-12.744-38.852-12.656-12.39-40.002-12.39h-21.594zm-17.877-14.691h36.728q38.409 0 56.375 16.019 17.966 15.93 17.966 49.915 0 34.161-18.054 50.18t-56.287 16.019h-36.728v-132.13z"/>
   </g>
  </g>
 </g>
</svg>
