<?xml version="1.0" encoding="UTF-8"?>
<svg width="20px" height="20px" viewBox="0 0 20 20" version="1.1" xmlns="http://www.w3.org/2000/svg" xmlns:xlink="http://www.w3.org/1999/xlink">
    <!-- Generator: Sketch 41.1 (35376) - http://www.bohemiancoding.com/sketch -->
    <title>Fill 16</title>
    <desc>Created with Sketch.</desc>
    <defs></defs>
    <g id="about" stroke="none" stroke-width="1" fill="none" fill-rule="evenodd">
        <g id="Large-Devices-(-≥-1200px-)-Copy" transform="translate(-230.000000, -5270.000000)" fill="#FFFFFF">
            <g id="footer" transform="translate(0.000000, 4565.000000)">
                <g id="Group-18" transform="translate(150.000000, 705.000000)">
                    <path d="M97.75,8.375 L95.9065625,8.375 C96.04875,8.89375 96.125,9.4375 96.125,10 C96.125,13.38125 93.3828125,16.125 90,16.125 C86.6175,16.125 83.875,13.38125 83.875,10 C83.875,9.4375 83.95125,8.89375 84.0934375,8.375 L82.25,8.375 L82.25,16.75 C82.25,17.303125 82.6978125,17.75 83.25,17.75 L96.75,17.75 C97.3025,17.75 97.75,17.303125 97.75,16.75 L97.75,8.375 L97.75,8.375 Z M97.75,3.25 C97.75,2.696875 97.3025,2.25 96.75,2.25 L94.75,2.25 C94.1978125,2.25 93.75,2.696875 93.75,3.25 L93.75,5.25 C93.75,5.803125 94.1978125,6.25 94.75,6.25 L96.75,6.25 C97.3025,6.25 97.75,5.803125 97.75,5.25 L97.75,3.25 L97.75,3.25 Z M90,6.125 C88.44125,6.125 87.100625,7.046875 86.4859375,8.375 L86.4825,8.375 C86.4759375,8.3875 86.4715625,8.403125 86.4653125,8.41875 C86.4284375,8.5 86.3959375,8.584375 86.3646875,8.66875 C86.35,8.709375 86.33375,8.75 86.3203125,8.790625 C86.291875,8.878125 86.2684375,8.965625 86.2459375,9.05625 C86.2353125,9.096875 86.2228125,9.1375 86.21375,9.18125 C86.1934375,9.275 86.1790625,9.371875 86.1659375,9.46875 C86.1603125,9.50625 86.1521875,9.546875 86.148125,9.584375 C86.1334375,9.721875 86.125,9.859375 86.125,10 C86.125,12.140625 87.86,13.875 90,13.875 C92.1403125,13.875 93.875,12.140625 93.875,10 C93.875,9.859375 93.866875,9.721875 93.8521875,9.584375 C93.848125,9.546875 93.84,9.50625 93.834375,9.46875 C93.82125,9.371875 93.806875,9.275 93.7865625,9.18125 C93.7775,9.1375 93.765,9.096875 93.754375,9.05625 C93.731875,8.965625 93.7084375,8.878125 93.68,8.790625 C93.66625,8.75 93.6503125,8.709375 93.635625,8.66875 C93.604375,8.584375 93.571875,8.5 93.535,8.41875 C93.52875,8.403125 93.524375,8.3875 93.5178125,8.375 L93.514375,8.375 C92.899375,7.046875 91.5590625,6.125 90,6.125 L90,6.125 Z M97.5,20 L82.5,20 C81.119375,20 80,18.88125 80,17.5 L80,2.5 C80,1.11875 81.119375,0 82.5,0 L97.5,0 C98.8809375,0 100,1.11875 100,2.5 L100,17.5 C100,18.88125 98.8809375,20 97.5,20 L97.5,20 Z" id="Fill-16"></path>
                </g>
            </g>
        </g>
    </g>
</svg>