<?xml version="1.0" encoding="UTF-8"?>
<svg width="20px" height="20px" viewBox="0 0 20 20" version="1.1" xmlns="http://www.w3.org/2000/svg" xmlns:xlink="http://www.w3.org/1999/xlink">
    <!-- Generator: Sketch 41.1 (35376) - http://www.bohemiancoding.com/sketch -->
    <title>Group 17 Copy</title>
    <desc>Created with Sketch.</desc>
    <defs></defs>
    <g id="about" stroke="none" stroke-width="1" fill="none" fill-rule="evenodd">
        <g id="Large-Devices-(-≥-1200px-)-Copy" transform="translate(-310.000000, -5270.000000)">
            <g id="footer" transform="translate(0.000000, 4565.000000)">
                <g id="Group-18" transform="translate(150.000000, 705.000000)">
                    <g id="Group-17-Copy" transform="translate(160.000000, 0.000000)">
                        <rect id="Rectangle-2" x="0" y="0" width="20" height="20"></rect>
                        <path d="M0.25,19.9653409 L4.721875,19.9653409 L4.721875,7.27159091 L0.25,7.27159091 L0.25,19.9653409 Z M2.49375,5.39034091 C1.115625,5.39034091 0,4.38721591 0,3.14971591 C0,1.91221591 1.115625,0.909090909 2.49375,0.909090909 C3.871875,0.909090909 4.9875,1.91221591 4.9875,3.14971591 C4.9875,4.38721591 3.871875,5.39034091 2.49375,5.39034091 L2.49375,5.39034091 Z M15.546875,19.9653409 L15.546875,13.0309659 C15.546875,11.6122159 15.134375,10.1872159 13.4625,10.1872159 C11.7875,10.1872159 11.0875,11.6122159 11.0875,13.0653409 L11.0875,19.9653409 L6.621875,19.9653409 L6.621875,7.27159091 L11.0875,7.27159091 L11.0875,8.98096591 C12.2625,7.48721591 13.284375,6.87159091 15.134375,6.87159091 C16.9875,6.87159091 20,7.73409091 20,12.7497159 L20,19.9653409 L15.546875,19.9653409 L15.546875,19.9653409 Z" id="Fill-3" fill="#FFFFFF"></path>
                    </g>
                </g>
            </g>
        </g>
    </g>
</svg>