<?xml version="1.0" encoding="UTF-8"?>
<svg width="20px" height="18px" viewBox="0 0 20 18" version="1.1" xmlns="http://www.w3.org/2000/svg" xmlns:xlink="http://www.w3.org/1999/xlink">
    <!-- Generator: Sketch 41.1 (35376) - http://www.bohemiancoding.com/sketch -->
    <title>Group 17 Copy 2</title>
    <desc>Created with Sketch.</desc>
    <defs></defs>
    <g id="about" stroke="none" stroke-width="1" fill="none" fill-rule="evenodd">
        <g id="Large-Devices-(-≥-1200px-)-Copy" transform="translate(-270.000000, -5272.000000)">
            <g id="footer" transform="translate(0.000000, 4565.000000)">
                <g id="Group-18" transform="translate(150.000000, 705.000000)">
                    <g id="Group-17-Copy-2" transform="translate(120.000000, 0.000000)">
                        <rect id="Rectangle-2" x="0" y="0" width="20" height="20"></rect>
                        <g id="Group-14" transform="translate(0.000000, 2.727273)" fill="#FFFFFF">
                            <path d="M19.7809434,3.16867211 C19.7771698,3.16556691 19.7741509,3.16149132 19.769434,3.15916241 L19.7626415,3.15566905 L13.8060377,0.092185904 C13.7658491,0.0714198161 13.7235849,0.0574463739 13.6807547,0.0461899898 C13.6269811,0.0320224719 13.5720755,0.0232890705 13.5169811,0.0232890705 C13.2888679,0.0232890705 13.0618868,0.141092952 12.9388679,0.346424923 L9.50962264,6.07864147 L13.8132075,13.271859 L19.7992453,3.26648621 C19.8190566,3.23310521 19.8096226,3.19196118 19.7809434,3.16867211" id="Fill-53"></path>
                            <polyline id="Fill-54" points="7.62075472 4.77290092 7.62075472 11.2979162 13.2592453 14.1977937 7.62075472 4.77290092"></polyline>
                            <path d="M14.1064151,14.6334934 L18.7477358,17.020429 C19.3516981,17.331144 19.8413208,17.1135853 19.8413208,16.5348519 L19.8413208,5.04771195 L14.1064151,14.6334934" id="Fill-55"></path>
                            <path d="M6.64188679,3.17798774 L0.824339623,0.185924413 C0.719245283,0.131971399 0.619245283,0.106353422 0.528679245,0.106353422 C0.273962264,0.106353422 0.0952830189,0.309162411 0.0952830189,0.649376915 L0.0952830189,13.5689888 C0.0952830189,13.9148315 0.341320755,14.3243309 0.642075472,14.4790092 L5.76603774,17.1141675 C5.89735849,17.1817058 6.02245283,17.2137283 6.1354717,17.2137283 C6.45396226,17.2137283 6.67735849,16.9602656 6.67735849,16.5348519 L6.67735849,3.23679265 C6.67735849,3.21195097 6.66358491,3.18905005 6.64188679,3.17798774" id="Fill-56"></path>
                        </g>
                    </g>
                </g>
            </g>
        </g>
    </g>
</svg>