<?xml version="1.0" encoding="UTF-8"?>
<svg width="434px" height="482px" viewBox="0 0 434 482" version="1.1" xmlns="http://www.w3.org/2000/svg" xmlns:xlink="http://www.w3.org/1999/xlink">
    <!-- Generator: Sketch 41.1 (35376) - http://www.bohemiancoding.com/sketch -->
    <title>shield</title>
    <desc>Created with Sketch.</desc>
    <defs>
        <linearGradient x1="0%" y1="39.046224%" x2="50%" y2="39.046225%" id="linearGradient-1">
            <stop stop-color="#FFFFFF" offset="0%"></stop>
            <stop stop-color="#D7D8DD" offset="100%"></stop>
        </linearGradient>
        <path d="M216,359.997051 C212.519355,360.056622 209.080645,359.212698 206,357.548017 C189.780645,347.596335 174.735484,335.758234 161.16129,322.268691 C131.612903,292.913379 116,261.208318 116,230.496108 L116,167.615508 C116.23871,160.321358 120.616129,153.847966 127.193548,151.067981 L205.806452,121.613384 C212.43871,119.462205 219.56129,119.462205 226.193548,121.613384 L304.806452,151.167266 C311.383871,153.947251 315.76129,160.420643 316,167.714793 L316,230.595394 C316,261.274508 300.387097,293.012664 270.83871,322.367976 C257.258065,335.821115 242.212903,347.62612 226,357.548017 C222.919355,359.212698 219.480645,360.056622 216,359.997051" id="path-2"></path>
        <filter x="-50%" y="-50%" width="200%" height="200%" filterUnits="objectBoundingBox" id="filter-3">
            <feOffset dx="0" dy="4" in="SourceAlpha" result="shadowOffsetOuter1"></feOffset>
            <feGaussianBlur stdDeviation="6" in="shadowOffsetOuter1" result="shadowBlurOuter1"></feGaussianBlur>
            <feColorMatrix values="0 0 0 0 0.101960784   0 0 0 0 0.188235294   0 0 0 0 0.345098039  0 0 0 0.3 0" type="matrix" in="shadowBlurOuter1"></feColorMatrix>
        </filter>
        <linearGradient x1="0%" y1="39.046224%" x2="100%" y2="39.046225%" id="linearGradient-4">
            <stop stop-color="#FFFFFF" offset="0%"></stop>
            <stop stop-color="#D2D4E2" offset="100%"></stop>
        </linearGradient>
        <path d="M206,357.548017 C189.780645,347.596335 174.735484,335.758234 161.16129,322.268691 C131.612903,292.913379 116,261.208318 116,230.496108 L116,167.615508 C116.23871,160.321358 120.616129,153.847966 127.193548,151.067981 L205.806452,121.613384 C212.43871,119.462205 219.56129,119.462205 226.193548,121.613384 L304.806452,151.167266 C311.383871,153.947251 315.76129,160.420643 316,167.714793 L316,230.595394 C316,261.274508 300.387097,293.012664 270.83871,322.367976 C257.258065,335.821115 242.212903,347.62612 226,357.548017 C222.919355,359.212698 219.480645,360.056622 216,359.997051 C212.519355,360.056622 209.080645,359.212698 206,357.548017 Z" id="path-5"></path>
        <filter x="-50%" y="-50%" width="200%" height="200%" filterUnits="objectBoundingBox" id="filter-6">
            <feOffset dx="0" dy="3" in="SourceAlpha" result="shadowOffsetInner1"></feOffset>
            <feComposite in="shadowOffsetInner1" in2="SourceAlpha" operator="arithmetic" k2="-1" k3="1" result="shadowInnerInner1"></feComposite>
            <feColorMatrix values="0 0 0 0 1   0 0 0 0 1   0 0 0 0 1  0 0 0 0.8 0" type="matrix" in="shadowInnerInner1"></feColorMatrix>
        </filter>
        <linearGradient x1="50%" y1="0%" x2="50%" y2="100%" id="linearGradient-7">
            <stop stop-color="#00FFC1" offset="0%"></stop>
            <stop stop-color="#00AF82" offset="100%"></stop>
        </linearGradient>
        <path d="M216.5,343.99742 C213.454435,344.049545 210.445565,343.311111 207.75,341.854515 C193.558065,333.146793 180.393548,322.788455 168.516129,310.985104 C142.66129,285.299206 129,257.557278 129,230.684095 L129,175.663569 C129.208871,169.281188 133.039113,163.61697 138.794355,161.184483 L207.580645,135.411711 C213.383871,133.52943 219.616129,133.52943 225.419355,135.411711 L294.205645,161.271358 C299.960887,163.703844 303.791129,169.368063 304,175.750444 L304,230.770969 C304,257.615194 290.33871,285.386081 264.483871,311.071979 C252.600806,322.843476 239.43629,333.172855 225.25,341.854515 C222.554435,343.311111 219.545565,344.049545 216.5,343.99742" id="path-8"></path>
        <filter x="-50%" y="-50%" width="200%" height="200%" filterUnits="objectBoundingBox" id="filter-9">
            <feOffset dx="0" dy="3" in="SourceAlpha" result="shadowOffsetOuter1"></feOffset>
            <feGaussianBlur stdDeviation="0.5" in="shadowOffsetOuter1" result="shadowBlurOuter1"></feGaussianBlur>
            <feColorMatrix values="0 0 0 0 0.0901960784   0 0 0 0 0.133333333   0 0 0 0 0.294117647  0 0 0 0.3 0" type="matrix" in="shadowBlurOuter1"></feColorMatrix>
        </filter>
        <filter x="-50%" y="-50%" width="200%" height="200%" filterUnits="objectBoundingBox" id="filter-10">
            <feOffset dx="0" dy="3" in="SourceAlpha" result="shadowOffsetInner1"></feOffset>
            <feComposite in="shadowOffsetInner1" in2="SourceAlpha" operator="arithmetic" k2="-1" k3="1" result="shadowInnerInner1"></feComposite>
            <feColorMatrix values="0 0 0 0 1   0 0 0 0 1   0 0 0 0 1  0 0 0 1 0" type="matrix" in="shadowInnerInner1"></feColorMatrix>
        </filter>
        <linearGradient x1="0%" y1="34.8297719%" x2="100%" y2="34.8297715%" id="linearGradient-11">
            <stop stop-color="#FFFFFF" offset="0%"></stop>
            <stop stop-color="#FFFFFF" stop-opacity="0" offset="100%"></stop>
        </linearGradient>
    </defs>
    <g id="main" stroke="none" stroke-width="1" fill="none" fill-rule="evenodd">
        <g id="Large-Devices-(-≥-1200px-)-2560" transform="translate(-1063.000000, -5994.000000)">
            <g id="5" transform="translate(0.000000, 4969.000000)">
                <g id="shield" transform="translate(904.000000, 1026.000000)">
                    <g transform="translate(160.000000, 0.000000)">
                        <path d="M216,383.996461 C211.823226,384.067947 207.696774,383.055238 204,381.057621 C184.536774,369.115602 166.482581,354.909881 150.193548,338.722429 C114.735484,303.496054 96,265.449981 96,228.59533 L96,153.138609 C96.2864516,144.38563 101.539355,136.617559 109.432258,133.281577 L203.767742,97.9360606 C211.726452,95.3546465 220.273548,95.3546465 228.232258,97.9360606 L322.567742,133.400719 C330.460645,136.736701 335.713548,144.504772 336,153.257751 L336,228.714472 C336,265.529409 317.264516,303.615197 281.806452,338.841571 C265.509677,354.985338 247.455484,369.151344 228,381.057621 C224.303226,383.055238 220.176774,384.067947 216,383.996461" id="Page-1" stroke="#FFFFFF" stroke-width="2" stroke-linecap="round" stroke-linejoin="round" stroke-dasharray="1" opacity="0.200000003"></path>
                        <path d="M216,407.995872 C210.987871,408.079271 206.036129,406.897778 201.6,404.567224 C178.244129,390.634869 156.579097,374.061528 137.032258,355.176167 C94.4825806,314.07873 72,269.691645 72,226.694552 L72,138.661711 C72.3437419,128.449901 78.6472258,119.387152 88.1187097,115.495174 L201.32129,74.2587374 C210.871742,71.2470875 221.128258,71.2470875 230.67871,74.2587374 L343.88129,115.634173 C353.352774,119.526151 359.656258,128.5889 360,138.80071 L360,226.833551 C360,269.784311 337.517419,314.217729 294.967742,355.315166 C275.411613,374.149561 253.746581,390.676569 230.4,404.567224 C225.963871,406.897778 221.012129,408.079271 216,407.995872" id="Page-1" stroke="#FFFFFF" stroke-width="2" stroke-linecap="round" stroke-linejoin="round" stroke-dasharray="1" opacity="0.15"></path>
                        <path d="M216,431.995282 C210.152516,432.090596 204.375484,430.740318 199.2,428.076828 C171.951484,412.154136 146.675613,393.213175 123.870968,371.629905 C74.2296774,324.661406 48,273.933308 48,224.793774 L48,124.184812 C48.4010323,112.514173 55.7550968,102.156745 66.8051613,97.7087697 L198.874839,50.5814141 C210.017032,47.1395286 221.982968,47.1395286 233.125161,50.5814141 L365.194839,97.867626 C376.244903,102.315601 383.598968,112.673029 384,124.343668 L384,224.95263 C384,274.039213 357.770323,324.820262 308.129032,371.788761 C285.313548,393.313784 260.037677,412.201793 232.8,428.076828 C227.624516,430.740318 221.847484,432.090596 216,431.995282" id="Page-1" stroke="#FFFFFF" stroke-width="2" stroke-linecap="round" stroke-linejoin="round" stroke-dasharray="1" opacity="0.100000001"></path>
                        <path d="M216,455.994692 C209.317161,456.10192 202.714839,454.582857 196.8,451.586431 C165.658839,433.673403 136.772129,412.364822 110.709677,388.083643 C53.9767742,335.244081 24,278.174972 24,222.892995 L24,109.707914 C24.4583226,96.5784443 32.8629677,84.926338 45.4916129,79.9223659 L196.428387,26.9040909 C209.162323,23.0319697 222.837677,23.0319697 235.571613,26.9040909 L386.508387,80.1010792 C399.137032,85.1050513 407.541677,96.7571576 408,109.886627 L408,223.071709 C408,278.294114 378.023226,335.422795 321.290323,388.262357 C295.215484,412.478007 266.328774,433.727017 235.2,451.586431 C229.285161,454.582857 222.682839,456.10192 216,455.994692" id="Page-1" stroke="#FFFFFF" stroke-width="2" stroke-linecap="round" stroke-linejoin="round" stroke-dasharray="1" opacity="0.05"></path>
                        <path d="M216,479.994102 C208.481806,480.113245 201.054194,478.425397 194.4,475.096035 C159.366194,455.19267 126.868645,431.516469 97.5483871,404.537381 C33.723871,345.826757 0,282.416635 0,220.992217 L0,95.2310153 C0.515612903,80.6427159 9.97083871,67.6959311 24.1780645,62.1359622 L193.981935,3.22676768 C208.307613,-1.07558923 223.692387,-1.07558923 238.018065,3.22676768 L407.821935,62.3345325 C422.029161,67.8945014 431.484387,80.8412862 432,95.4295856 L432,221.190787 C432,282.549016 398.276129,346.025328 334.451613,404.735952 C305.117419,431.64223 272.619871,455.252241 237.6,475.096035 C230.945806,478.425397 223.518194,480.113245 216,479.994102" id="Page-1" stroke="#FFFFFF" stroke-width="2" stroke-linecap="round" stroke-linejoin="round" stroke-dasharray="1" opacity="0.02"></path>
                        <g id="Page-1">
                            <use fill="black" fill-opacity="1" filter="url(#filter-3)" xlink:href="#path-2"></use>
                            <use fill="url(#linearGradient-1)" fill-rule="evenodd" xlink:href="#path-2"></use>
                        </g>
                        <path d="M216,120 C219.43871,120 222.877419,120.537795 226.193548,121.613384 L304.806452,151.167266 C311.383871,153.947251 315.76129,160.420643 316,167.714793 L316,230.595394 C316,261.274508 300.387097,293.012664 270.83871,322.367976 C257.258065,335.821115 242.212903,347.62612 226,357.548017 C222.919355,359.212698 219.480645,360.056622 216,359.997051 L216,120 Z" id="Combined-Shape" fill="url(#linearGradient-4)"></path>
                        <g id="Page-1" fill-opacity="1" fill="black">
                            <use filter="url(#filter-6)" xlink:href="#path-5"></use>
                        </g>
                        <g id="Page-1">
                            <use fill="black" fill-opacity="1" filter="url(#filter-9)" xlink:href="#path-8"></use>
                            <use fill="url(#linearGradient-7)" fill-rule="evenodd" xlink:href="#path-8"></use>
                            <use fill="black" fill-opacity="1" filter="url(#filter-10)" xlink:href="#path-8"></use>
                        </g>
                        <path d="M216,343.998882 C216.166526,344.000758 216.333208,344.000274 216.5,343.99742 C219.545565,344.049545 222.554435,343.311111 225.25,341.854515 C239.43629,333.172855 252.600806,322.843476 264.483871,311.071979 C290.33871,285.386081 304,257.615194 304,230.770969 L304,175.750444 C303.791129,169.368063 299.960887,163.703844 294.205645,161.271358 L225.419355,135.411711 C222.357011,134.418437 219.175196,133.949311 216,134.004332 L216,343.998884 Z" id="Combined-Shape" fill="url(#linearGradient-11)" opacity="0.200000003"></path>
                        <path d="M206.062097,250.437903 C208.144893,252.520699 211.521773,252.520699 213.604569,250.437903 L242.937903,221.104569 C245.020699,219.021773 245.020699,215.644893 242.937903,213.562097 C240.855107,211.479301 237.478227,211.479301 235.395431,213.562097 L209.833333,239.199304 L197.604569,226.895431 C195.521773,224.812634 192.144893,224.812634 190.062097,226.895431 C187.979301,228.978227 187.979301,232.355107 190.062097,234.437903 L206.062097,250.437903 Z" id="Path-1065-Copy" fill="#FFFFFF"></path>
                    </g>
                </g>
            </g>
        </g>
    </g>
</svg>