<?xml version="1.0" encoding="UTF-8"?>
<svg width="19px" height="17px" viewBox="0 0 19 17" version="1.1" xmlns="http://www.w3.org/2000/svg" xmlns:xlink="http://www.w3.org/1999/xlink">
    <!-- Generator: Sketch 41.1 (35376) - http://www.bohemiancoding.com/sketch -->
    <title>Group 17</title>
    <desc>Created with Sketch.</desc>
    <defs></defs>
    <g id="about" stroke="none" stroke-width="1" fill="none" fill-rule="evenodd">
        <g id="Large-Devices-(-≥-1200px-)-Copy" transform="translate(-190.000000, -5271.000000)">
            <g id="footer" transform="translate(0.000000, 4565.000000)">
                <g id="Group-18" transform="translate(150.000000, 705.000000)">
                    <g id="Group-17" transform="translate(40.000000, 0.000000)">
                        <rect id="Rectangle-2" x="0" y="0" width="18.8157895" height="20"></rect>
                        <path d="M12.6359712,1.53943594 C14.112311,1.51144994 14.8980861,2.08982726 15.6484475,2.82057279 C16.2856017,2.76149124 17.1134666,2.38212547 17.601129,2.11781326 C17.759329,2.02452659 17.9172388,1.93123993 18.0754388,1.83795326 C17.7967745,2.64332813 17.4191265,3.27456789 16.838576,3.75343944 C16.7096938,3.86227388 16.5819727,4.00531343 16.4202894,4.07372365 L16.4202894,4.08305232 C17.2472835,4.07372365 17.9294303,3.67259099 18.5776149,3.45803167 L18.5776149,3.46736033 C18.2371221,4.04573765 17.7764553,4.63344363 17.2850193,5.05634318 C17.0867613,5.22425917 16.8882131,5.39217517 16.6899551,5.56320072 C16.7006953,6.49917692 16.677183,7.3947289 16.5131775,8.18455599 C15.561365,12.7680408 13.0394537,15.8775962 9.04700819,17.2115955 C7.61333882,17.6904671 5.29665218,17.8863691 3.65398464,17.4479217 C2.83947233,17.2333624 2.10362461,16.9877075 1.41305984,16.6643138 C1.02960625,16.4839595 0.674309367,16.2911671 0.334687344,16.0703887 C0.222931379,15.9957593 0.11146569,15.9242396 0,15.8496102 C0.370391198,15.8620485 0.803772121,15.9708829 1.21799488,15.8993631 C1.5927402,15.8340625 1.96022865,15.8527198 2.30565618,15.7718713 C3.16806389,15.5697502 3.93351968,15.2992189 4.59302501,14.885648 C4.91290832,14.6866365 5.39795824,14.4503103 5.62524374,14.1611216 C5.19708777,14.1704503 4.80898979,14.0647254 4.49084813,13.9434527 C3.25775894,13.4770194 2.54019857,12.6187821 2.07343599,11.3314261 C2.44702022,11.3749599 3.52307051,11.4806848 3.77473913,11.2536872 C3.30449325,11.2257012 2.85224444,10.933403 2.52887783,10.7157341 C1.53729763,10.0502893 0.72830056,8.93706841 0.73439634,7.22059379 C0.864439644,7.28589445 0.994773224,7.35430467 1.12481653,7.41960534 C1.37387268,7.53154934 1.62728296,7.59063089 1.9245248,7.65904111 C2.05021397,7.68391756 2.30101177,7.764766 2.44527856,7.70568444 L2.42670095,7.70568444 C2.23482902,7.46935823 1.92220259,7.30766134 1.72916956,7.05267779 C1.09288625,6.20376915 0.496660924,4.90086541 0.873728452,3.34919722 C0.969519279,2.95428368 1.12133323,2.60601347 1.28301653,2.28572925 C1.28911231,2.28883881 1.29549837,2.29194836 1.30159415,2.29505792 C1.37561433,2.45986436 1.54078094,2.58424658 1.6455703,2.72106702 C1.97067856,3.15329523 2.37154866,3.54198966 2.77996591,3.88404077 C4.17183565,5.05012407 5.42524411,5.76532183 7.43830285,6.29705581 C7.94889699,6.4307667 8.53931681,6.53338203 9.14918507,6.53649159 C8.97792269,6.00164804 9.03278471,5.13719162 9.16776269,4.61789586 C9.50709444,3.31810167 10.243813,2.37901592 11.3250882,1.87837748 C11.5834332,1.75710482 11.8702251,1.67003727 12.1709503,1.59851749 C12.3259572,1.57986016 12.4809642,1.56120283 12.6359712,1.53943594" id="Fill-18" fill="#FFFFFF"></path>
                    </g>
                </g>
            </g>
        </g>
    </g>
</svg>